<svg width="201" height="201" viewBox="0 0 201 201" fill="none" xmlns="http://www.w3.org/2000/svg">
<rect width="201" height="201" rx="100.5" transform="matrix(1 0 0 -1 0 201)" fill="url(#paint0_linear_123071_1995)"/>
<path d="M64.7061 73.7406C74.7362 73.7406 82.1113 75.7259 86.8314 79.6965C91.6252 83.6671 94.0221 88.865 94.0221 95.2901C94.0221 97.4559 93.7271 99.8743 93.1371 102.545C91.7358 108.465 89.1177 113.663 85.2826 118.139C81.4476 122.543 76.7275 125.972 71.1225 128.426C65.5911 130.809 59.5804 132 53.0904 132C42.839 132 35.2426 130.015 30.3013 126.044C25.4338 122.001 23 116.659 23 110.017C23 107.779 23.295 105.289 23.885 102.545C25.2863 96.9144 27.9413 91.9332 31.8501 87.6016C35.8327 83.1979 40.6633 79.8048 46.3422 77.4225C52.0947 74.9679 58.216 73.7406 64.7061 73.7406ZM64.3742 83.3783C62.8255 83.3783 61.1661 84.75 59.3961 87.4933C57.6998 90.1644 55.6716 95.254 53.3116 102.762C50.9516 110.27 49.7716 115.54 49.7716 118.572C49.7716 120.16 50.0297 121.243 50.546 121.821C51.0622 122.326 51.7628 122.579 52.6479 122.579C54.1966 122.723 55.7823 121.424 57.4048 118.68C59.1011 115.937 61.203 110.595 63.7105 102.654C65.9968 95.6511 67.1399 90.5615 67.1399 87.385C67.1399 85.869 66.8818 84.8222 66.3655 84.2447C65.923 83.6671 65.2593 83.3783 64.3742 83.3783Z" fill="white"/>
<path d="M160.146 116.082C159.998 116.37 159.924 116.803 159.924 117.381C159.924 117.886 160.035 118.283 160.256 118.572C160.551 118.861 160.92 119.005 161.362 119.005C162.247 119.005 162.985 118.644 163.575 117.922C164.239 117.128 164.681 116.731 164.902 116.731C165.271 116.731 165.566 116.984 165.787 117.489C166.009 117.922 166.119 118.464 166.119 119.114C166.193 121.207 165.492 123.265 164.017 125.286C162.542 127.235 160.367 128.86 157.491 130.159C154.688 131.386 151.295 132 147.313 132C142.445 132 138.573 130.917 135.697 128.751C132.821 126.513 131.346 123.553 131.272 119.872C131.272 117.201 131.936 114.205 133.263 110.884L139.348 95.2901C139.717 94.3516 139.901 93.5936 139.901 93.016C139.901 92.0775 139.569 91.3556 138.905 90.8503C138.315 90.2727 137.578 89.984 136.693 89.984C135.291 89.984 133.853 90.6337 132.378 91.9332C130.977 93.1604 129.834 95.1818 128.949 97.9973V97.7807L121.979 119.763C121.758 120.63 121.648 121.388 121.648 122.037C121.648 122.976 121.832 123.734 122.201 124.311C122.569 124.817 123.086 125.322 123.749 125.828C124.266 126.333 124.634 126.766 124.856 127.127C125.077 127.416 125.114 127.813 124.966 128.318C124.598 129.257 123.86 129.943 122.754 130.376C121.648 130.809 119.951 131.025 117.665 131.025H92.4422C90.5247 131.025 89.1234 130.737 88.2384 130.159C87.3534 129.509 87.0584 128.679 87.3534 127.668C87.6484 126.802 88.4228 126.044 89.6766 125.394C90.7828 124.817 91.7047 124.131 92.4422 123.337C93.1797 122.543 93.8066 121.279 94.3229 119.547L111.138 65.5107C111.359 64.861 111.47 64.3195 111.47 63.8864C111.47 63.0922 111.249 62.4425 110.806 61.9372C110.437 61.4318 109.921 60.9265 109.257 60.4211C108.52 59.8436 107.967 59.3382 107.598 58.9051C107.303 58.4719 107.266 57.8944 107.487 57.1725C107.93 55.512 110.253 54.0682 114.457 52.8409C118.661 51.6136 123.049 51 127.621 51C131.899 51 135.033 51.7941 137.025 53.3824C139.09 54.9706 140.122 57.1364 140.122 59.8797C140.122 61.4679 139.864 63.0201 139.348 64.5361L133.374 83.5949C136.25 79.9131 139.274 77.3503 142.445 75.9064C145.69 74.4626 149.194 73.7406 152.955 73.7406C157.454 73.7406 161.067 75.0762 163.796 77.7473C166.599 80.4184 168 83.8837 168 88.143C168 90.381 167.631 92.5829 166.894 94.7487L160.146 116.082Z" fill="white"/>
<defs>
<linearGradient id="paint0_linear_123071_1995" x1="100.5" y1="-52.26" x2="24.9959" y2="266.409" gradientUnits="userSpaceOnUse">
<stop stop-color="#9356DC"/>
<stop offset="1" stop-color="#FF79DA"/>
</linearGradient>
</defs>
</svg>
