<svg width="197" height="34" viewBox="0 0 197 34" fill="none" xmlns="http://www.w3.org/2000/svg">
<path d="M14.2888 7.56C17.5528 7.56 19.9528 8.22 21.4888 9.54C23.0488 10.86 23.8288 12.588 23.8288 14.724C23.8288 15.444 23.7328 16.248 23.5408 17.136C23.0848 19.104 22.2328 20.832 20.9848 22.32C19.7368 23.784 18.2008 24.924 16.3768 25.74C14.5768 26.532 12.6208 26.928 10.5088 26.928C7.1728 26.928 4.7008 26.268 3.0928 24.948C1.5088 23.604 0.716797 21.828 0.716797 19.62C0.716797 18.876 0.812797 18.048 1.0048 17.136C1.4608 15.264 2.3248 13.608 3.5968 12.168C4.8928 10.704 6.4648 9.576 8.3128 8.784C10.1848 7.968 12.1768 7.56 14.2888 7.56ZM14.1808 10.764C13.6768 10.764 13.1368 11.22 12.5608 12.132C12.0088 13.02 11.3488 14.712 10.5808 17.208C9.8128 19.704 9.4288 21.456 9.4288 22.464C9.4288 22.992 9.5128 23.352 9.6808 23.544C9.8488 23.712 10.0768 23.796 10.3648 23.796C10.8688 23.844 11.3848 23.412 11.9128 22.5C12.4648 21.588 13.1488 19.812 13.9648 17.172C14.7088 14.844 15.0808 13.152 15.0808 12.096C15.0808 11.592 14.9968 11.244 14.8288 11.052C14.6848 10.86 14.4688 10.764 14.1808 10.764Z" fill="#101010"/>
<path d="M45.3467 21.636C45.2987 21.732 45.2747 21.876 45.2747 22.068C45.2747 22.236 45.3107 22.368 45.3827 22.464C45.4787 22.56 45.5987 22.608 45.7427 22.608C46.0307 22.608 46.2707 22.488 46.4627 22.248C46.6787 21.984 46.8227 21.852 46.8947 21.852C47.0147 21.852 47.1107 21.936 47.1827 22.104C47.2547 22.248 47.2907 22.428 47.2907 22.644C47.3147 23.34 47.0867 24.024 46.6067 24.696C46.1267 25.344 45.4187 25.884 44.4827 26.316C43.5707 26.724 42.4667 26.928 41.1707 26.928C39.5867 26.928 38.3267 26.568 37.3907 25.848C36.4547 25.104 35.9747 24.12 35.9507 22.896C35.9507 22.008 36.1667 21.012 36.5987 19.908L38.5787 14.724C38.6987 14.412 38.7587 14.16 38.7587 13.968C38.7587 13.656 38.6507 13.416 38.4347 13.248C38.2427 13.056 38.0027 12.96 37.7147 12.96C37.2587 12.96 36.7907 13.176 36.3107 13.608C35.8547 14.016 35.4827 14.688 35.1947 15.624V15.552L32.9267 22.86C32.8547 23.148 32.8187 23.4 32.8187 23.616C32.8187 23.928 32.8787 24.18 32.9987 24.372C33.1187 24.54 33.2867 24.708 33.5027 24.876C33.6707 25.044 33.7907 25.188 33.8627 25.308C33.9347 25.404 33.9467 25.536 33.8987 25.704C33.7787 26.016 33.5387 26.244 33.1787 26.388C32.8187 26.532 32.2667 26.604 31.5227 26.604H23.3147C22.6907 26.604 22.2347 26.508 21.9467 26.316C21.6587 26.1 21.5627 25.824 21.6587 25.488C21.7547 25.2 22.0067 24.948 22.4147 24.732C22.7747 24.54 23.0747 24.312 23.3147 24.048C23.5547 23.784 23.7587 23.364 23.9267 22.788L29.3987 4.824C29.4707 4.608 29.5067 4.428 29.5067 4.284C29.5067 4.02 29.4347 3.804 29.2907 3.636C29.1707 3.468 29.0027 3.3 28.7867 3.132C28.5467 2.94 28.3667 2.772 28.2467 2.628C28.1507 2.484 28.1387 2.292 28.2107 2.052C28.3547 1.5 29.1107 1.02 30.4787 0.611999C31.8467 0.204 33.2747 0 34.7627 0C36.1547 0 37.1747 0.264 37.8227 0.792001C38.4947 1.32 38.8307 2.04 38.8307 2.952C38.8307 3.48 38.7467 3.996 38.5787 4.5L36.6347 10.836C37.5707 9.612 38.5547 8.76 39.5867 8.28C40.6427 7.8 41.7827 7.56 43.0067 7.56C44.4707 7.56 45.6467 8.004 46.5347 8.892C47.4467 9.78 47.9027 10.932 47.9027 12.348C47.9027 13.092 47.7827 13.824 47.5427 14.544L45.3467 21.636Z" fill="#101010"/>
<path d="M83.0733 21.636C83.0253 21.732 83.0013 21.876 83.0013 22.068C83.0013 22.236 83.0373 22.368 83.1093 22.464C83.2053 22.56 83.3253 22.608 83.4693 22.608C83.7573 22.608 83.9973 22.488 84.1893 22.248C84.4053 21.984 84.5493 21.852 84.6213 21.852C84.7413 21.852 84.8373 21.936 84.9093 22.104C84.9813 22.248 85.0173 22.428 85.0173 22.644C85.0413 23.34 84.8133 24.024 84.3333 24.696C83.8533 25.344 83.1453 25.884 82.2093 26.316C81.2973 26.724 80.1933 26.928 78.8973 26.928C77.3133 26.928 76.0533 26.568 75.1173 25.848C74.1813 25.104 73.7013 24.12 73.6773 22.896C73.6773 22.008 73.8933 21.012 74.3253 19.908L76.3053 14.724C76.4253 14.412 76.4853 14.16 76.4853 13.968C76.4853 13.656 76.3773 13.416 76.1613 13.248C75.9693 13.056 75.7293 12.96 75.4413 12.96C75.0333 12.96 74.6133 13.14 74.1813 13.5C73.7493 13.86 73.3653 14.424 73.0293 15.192L71.0493 21.636C71.0013 21.732 70.9773 21.876 70.9773 22.068C70.9773 22.236 71.0133 22.368 71.0853 22.464C71.1813 22.56 71.3013 22.608 71.4453 22.608C71.7333 22.608 71.9733 22.488 72.1653 22.248C72.3813 21.984 72.5253 21.852 72.5973 21.852C72.7173 21.852 72.8133 21.936 72.8853 22.104C72.9573 22.248 72.9933 22.428 72.9933 22.644C73.0173 23.34 72.7893 24.024 72.3093 24.696C71.8293 25.344 71.1213 25.884 70.1853 26.316C69.2733 26.724 68.1693 26.928 66.8733 26.928C65.2893 26.928 64.0293 26.568 63.0933 25.848C62.1573 25.104 61.6773 24.12 61.6533 22.896C61.6533 22.008 61.8693 21.012 62.3013 19.908L64.2813 14.724C64.4013 14.412 64.4613 14.16 64.4613 13.968C64.4613 13.656 64.3533 13.416 64.1373 13.248C63.9453 13.056 63.7053 12.96 63.4173 12.96C63.0093 12.96 62.5893 13.14 62.1573 13.5C61.7253 13.836 61.3653 14.388 61.0773 15.156L58.7013 22.86C58.6053 23.124 58.5573 23.376 58.5573 23.616C58.5573 23.904 58.6173 24.144 58.7373 24.336C58.8573 24.504 59.0253 24.684 59.2413 24.876C59.4093 25.02 59.5293 25.152 59.6013 25.272C59.6733 25.392 59.6853 25.536 59.6373 25.704C59.5413 26.016 59.3133 26.244 58.9533 26.388C58.5933 26.532 58.0293 26.604 57.2613 26.604H49.0533C48.4293 26.604 47.9853 26.508 47.7213 26.316C47.4333 26.1 47.3253 25.824 47.3973 25.488C47.4933 25.2 47.7453 24.948 48.1533 24.732C48.5133 24.54 48.8133 24.312 49.0533 24.048C49.2933 23.784 49.4973 23.364 49.6653 22.788L52.8693 12.384C52.9173 12.264 52.9413 12.096 52.9413 11.88C52.9413 11.616 52.8813 11.412 52.7613 11.268C52.6653 11.124 52.4973 10.944 52.2573 10.728C52.0173 10.536 51.8493 10.368 51.7533 10.224C51.6573 10.08 51.6453 9.888 51.7173 9.648C51.8613 9.096 52.6173 8.616 53.9853 8.208C55.3533 7.776 56.7813 7.56 58.2693 7.56C59.4453 7.56 60.3693 7.884 61.0413 8.532C61.7373 9.18 62.0733 10.068 62.0493 11.196C63.0333 9.828 64.0653 8.88 65.1453 8.352C66.2493 7.824 67.4373 7.56 68.7093 7.56C70.1013 7.56 71.2293 7.968 72.0933 8.784C72.9813 9.576 73.4733 10.62 73.5693 11.916C74.6013 10.284 75.7053 9.156 76.8813 8.532C78.0573 7.884 79.3413 7.56 80.7333 7.56C82.1973 7.56 83.3733 8.004 84.2613 8.892C85.1733 9.78 85.6293 10.932 85.6293 12.348C85.6293 13.092 85.5093 13.824 85.2693 14.544L83.0733 21.636Z" fill="#101010"/>
<path d="M105.288 7.56C106.344 7.56 107.184 7.992 107.808 8.856C108.456 9.696 108.78 10.848 108.78 12.312C108.78 13.584 108.552 14.952 108.096 16.416C107.208 19.368 105.78 22.152 103.812 24.768C101.868 27.384 99.6244 29.484 97.0804 31.068C94.5604 32.652 92.0404 33.444 89.5204 33.444C88.2724 33.444 87.1924 33.228 86.2804 32.796C85.3924 32.364 84.7204 31.788 84.2644 31.068C83.7844 30.348 83.5444 29.58 83.5444 28.764C83.5444 28.404 83.6044 28.008 83.7244 27.576C83.9404 26.904 84.3004 26.388 84.8044 26.028C85.3084 25.668 85.9084 25.488 86.6044 25.488C87.7084 25.488 88.6084 25.86 89.3044 26.604C90.0244 27.372 90.4804 28.416 90.6724 29.736C92.2084 29.664 93.6244 29.004 94.9204 27.756C93.6964 27.54 92.7844 27.132 92.1844 26.532C91.6084 25.908 91.2124 24.948 90.9964 23.652L89.5564 14.832C89.4844 14.376 89.3764 14.064 89.2324 13.896C89.1124 13.704 88.9444 13.608 88.7284 13.608C88.5604 13.608 88.3564 13.692 88.1164 13.86C87.9004 14.028 87.7444 14.112 87.6484 14.112C87.4564 14.112 87.3604 13.908 87.3604 13.5C87.3604 13.164 87.4204 12.804 87.5404 12.42C87.9724 11.052 88.7764 9.9 89.9524 8.964C91.1284 8.004 92.4964 7.524 94.0564 7.524C95.5924 7.524 96.7204 7.98 97.4404 8.892C98.1844 9.804 98.6644 11.208 98.8804 13.104L99.9604 21.024C100.032 21.624 100.248 21.924 100.608 21.924C101.04 21.924 101.544 21.54 102.12 20.772C102.696 19.98 103.26 18.864 103.812 17.424C103.092 16.776 102.54 16.032 102.156 15.192C101.772 14.352 101.58 13.452 101.58 12.492C101.58 11.748 101.676 11.076 101.868 10.476C102.156 9.516 102.6 8.796 103.2 8.316C103.824 7.812 104.52 7.56 105.288 7.56Z" fill="#101010"/>
<path d="M123.221 0C125.789 0 127.709 0.396 128.981 1.188C130.277 1.956 130.925 2.904 130.925 4.032C130.925 4.944 130.541 5.652 129.773 6.156C129.029 6.636 128.045 6.876 126.821 6.876C125.693 6.876 124.817 6.6 124.193 6.048C123.569 5.496 123.257 4.812 123.257 3.996C123.257 3.492 123.413 2.964 123.725 2.412C123.005 2.412 122.405 2.592 121.925 2.952C121.445 3.288 121.073 3.876 120.809 4.716C120.665 5.244 120.593 5.736 120.593 6.192C120.593 6.768 120.689 7.224 120.881 7.56C121.097 7.872 121.397 8.028 121.781 8.028H123.905C125.153 8.028 125.777 8.412 125.777 9.18C125.777 9.276 125.753 9.42 125.705 9.612C125.561 10.14 125.261 10.536 124.805 10.8C124.373 11.064 123.713 11.196 122.825 11.196H121.745L118.181 22.86C118.109 23.148 118.073 23.4 118.073 23.616C118.073 23.928 118.133 24.18 118.253 24.372C118.373 24.54 118.541 24.708 118.757 24.876C118.925 25.044 119.045 25.188 119.117 25.308C119.189 25.404 119.201 25.536 119.153 25.704C119.033 26.016 118.793 26.244 118.433 26.388C118.073 26.532 117.521 26.604 116.777 26.604H108.569C107.945 26.604 107.489 26.508 107.201 26.316C106.913 26.1 106.817 25.824 106.913 25.488C107.009 25.2 107.261 24.948 107.669 24.732C108.029 24.54 108.329 24.312 108.569 24.048C108.809 23.784 109.013 23.364 109.181 22.788L111.989 13.572C112.109 13.212 112.169 12.84 112.169 12.456C112.169 11.976 112.061 11.604 111.845 11.34C111.653 11.052 111.353 10.74 110.945 10.404C110.681 10.188 110.477 10.008 110.333 9.864C110.213 9.696 110.153 9.504 110.153 9.288C110.129 8.832 110.285 8.508 110.621 8.316C110.981 8.124 111.653 8.028 112.637 8.028H113.537C113.369 7.428 113.285 6.828 113.285 6.228C113.285 5.628 113.393 5.004 113.609 4.356C114.065 3.132 115.037 2.1 116.525 1.26C118.037 0.42 120.269 0 123.221 0Z" fill="#101010"/>
<path d="M137.441 7.56C140.705 7.56 143.105 8.22 144.641 9.54C146.201 10.86 146.981 12.588 146.981 14.724C146.981 15.444 146.885 16.248 146.693 17.136C146.237 19.104 145.385 20.832 144.137 22.32C142.889 23.784 141.353 24.924 139.529 25.74C137.729 26.532 135.773 26.928 133.661 26.928C130.325 26.928 127.853 26.268 126.245 24.948C124.661 23.604 123.869 21.828 123.869 19.62C123.869 18.876 123.965 18.048 124.157 17.136C124.613 15.264 125.477 13.608 126.749 12.168C128.045 10.704 129.617 9.576 131.465 8.784C133.337 7.968 135.329 7.56 137.441 7.56ZM137.333 10.764C136.829 10.764 136.289 11.22 135.713 12.132C135.161 13.02 134.501 14.712 133.733 17.208C132.965 19.704 132.581 21.456 132.581 22.464C132.581 22.992 132.665 23.352 132.833 23.544C133.001 23.712 133.229 23.796 133.517 23.796C134.021 23.844 134.537 23.412 135.065 22.5C135.617 21.588 136.301 19.812 137.117 17.172C137.861 14.844 138.233 13.152 138.233 12.096C138.233 11.592 138.149 11.244 137.981 11.052C137.837 10.86 137.621 10.764 137.333 10.764Z" fill="#101010"/>
<path d="M161.066 7.56C164.33 7.56 166.73 8.22 168.266 9.54C169.826 10.86 170.606 12.588 170.606 14.724C170.606 15.444 170.51 16.248 170.318 17.136C169.862 19.104 169.01 20.832 167.762 22.32C166.514 23.784 164.978 24.924 163.154 25.74C161.354 26.532 159.398 26.928 157.286 26.928C153.95 26.928 151.478 26.268 149.87 24.948C148.286 23.604 147.494 21.828 147.494 19.62C147.494 18.876 147.59 18.048 147.782 17.136C148.238 15.264 149.102 13.608 150.374 12.168C151.67 10.704 153.242 9.576 155.09 8.784C156.962 7.968 158.954 7.56 161.066 7.56ZM160.958 10.764C160.454 10.764 159.914 11.22 159.338 12.132C158.786 13.02 158.126 14.712 157.358 17.208C156.59 19.704 156.206 21.456 156.206 22.464C156.206 22.992 156.29 23.352 156.458 23.544C156.626 23.712 156.854 23.796 157.142 23.796C157.646 23.844 158.162 23.412 158.69 22.5C159.242 21.588 159.926 19.812 160.742 17.172C161.486 14.844 161.858 13.152 161.858 12.096C161.858 11.592 161.774 11.244 161.606 11.052C161.462 10.86 161.246 10.764 160.958 10.764Z" fill="#101010"/>
<path d="M190.883 21.42C190.835 21.612 190.811 21.744 190.811 21.816C190.811 21.984 190.859 22.116 190.955 22.212C191.051 22.308 191.171 22.356 191.315 22.356C191.603 22.356 191.843 22.236 192.035 21.996C192.251 21.732 192.395 21.6 192.467 21.6C192.587 21.6 192.683 21.684 192.755 21.852C192.827 22.02 192.863 22.212 192.863 22.428C192.887 23.076 192.635 23.736 192.107 24.408C191.603 25.08 190.919 25.632 190.055 26.064C189.191 26.496 188.255 26.712 187.247 26.712C186.047 26.712 185.003 26.484 184.115 26.028C183.227 25.572 182.615 24.972 182.279 24.228C181.631 25.068 180.887 25.692 180.047 26.1C179.207 26.508 178.319 26.712 177.383 26.712C176.279 26.712 175.247 26.436 174.287 25.884C173.351 25.332 172.595 24.552 172.019 23.544C171.467 22.512 171.191 21.348 171.191 20.052C171.191 17.868 171.599 15.816 172.415 13.896C173.255 11.952 174.419 10.392 175.907 9.216C177.395 8.016 179.087 7.416 180.983 7.416C182.015 7.416 182.891 7.536 183.611 7.776C184.355 8.016 185.027 8.376 185.627 8.856L186.851 4.824C186.923 4.608 186.959 4.428 186.959 4.284C186.959 4.02 186.887 3.804 186.743 3.636C186.623 3.468 186.455 3.3 186.239 3.132C185.999 2.94 185.819 2.772 185.699 2.628C185.603 2.484 185.591 2.292 185.663 2.052C185.807 1.5 186.563 1.02 187.931 0.611999C189.299 0.204 190.727 0 192.215 0C193.607 0 194.627 0.264 195.275 0.792001C195.947 1.32 196.283 2.04 196.283 2.952C196.283 3.48 196.199 3.996 196.031 4.5L190.883 21.42ZM184.871 11.304C184.487 10.968 184.067 10.8 183.611 10.8C182.915 10.8 182.231 11.316 181.559 12.348C180.887 13.38 180.347 14.628 179.939 16.092C179.531 17.556 179.339 18.876 179.363 20.052C179.363 21.372 179.795 22.032 180.659 22.032C180.971 22.032 181.235 21.912 181.451 21.672C181.667 21.408 181.871 20.988 182.063 20.412L184.871 11.304Z" fill="#101010"/>
</svg>
