<?xml version="1.0" encoding="utf-8"?>
<!-- Generator: Adobe Illustrator 28.0.0, SVG Export Plug-In . SVG Version: 6.00 Build 0)  -->
<svg version="1.1" id="Calque_1" xmlns="http://www.w3.org/2000/svg" xmlns:xlink="http://www.w3.org/1999/xlink" x="0px" y="0px"
	 viewBox="0 0 200 35" style="enable-background:new 0 0 200 35;" xml:space="preserve">
<style type="text/css">
	.st0{fill:#FFFFFF;}
</style>
<path class="st0" d="M13.9,7.7c3.3,0,5.8,0.7,7.4,2c1.6,1.3,2.4,3.1,2.4,5.3c0,0.7-0.1,1.6-0.3,2.5c-0.5,2-1.3,3.8-2.6,5.3
	c-1.3,1.5-2.8,2.7-4.7,3.5c-1.8,0.8-3.8,1.2-6,1.2c-3.4,0-5.9-0.7-7.6-2C0.8,24.1,0,22.3,0,20.1c0-0.8,0.1-1.6,0.3-2.5
	c0.5-1.9,1.3-3.6,2.7-5.1C4.3,10.9,5.9,9.8,7.8,9C9.7,8.1,11.7,7.7,13.9,7.7z M13.8,11c-0.5,0-1.1,0.5-1.7,1.4
	c-0.6,0.9-1.2,2.6-2,5.2c-0.8,2.6-1.2,4.3-1.2,5.4c0,0.5,0.1,0.9,0.3,1.1c0.2,0.2,0.4,0.3,0.7,0.3c0.5,0,1-0.4,1.6-1.3
	c0.6-0.9,1.3-2.7,2.1-5.4c0.8-2.4,1.1-4.1,1.1-5.2c0-0.5-0.1-0.9-0.3-1.1C14.3,11.1,14.1,11,13.8,11z"/>
<path class="st0" d="M45.6,22.1c0,0.1-0.1,0.2-0.1,0.4c0,0.2,0,0.3,0.1,0.4c0.1,0.1,0.2,0.1,0.4,0.1c0.3,0,0.5-0.1,0.7-0.4
	c0.2-0.3,0.4-0.4,0.4-0.4c0.1,0,0.2,0.1,0.3,0.3c0.1,0.1,0.1,0.3,0.1,0.6c0,0.7-0.2,1.4-0.7,2.1c-0.5,0.7-1.2,1.2-2.2,1.7
	c-0.9,0.4-2.1,0.6-3.4,0.6c-1.6,0-2.9-0.4-3.9-1.1c-1-0.8-1.4-1.8-1.5-3c0-0.9,0.2-1.9,0.7-3.1l2-5.3c0.1-0.3,0.2-0.6,0.2-0.8
	c0-0.3-0.1-0.6-0.3-0.7c-0.2-0.2-0.4-0.3-0.7-0.3c-0.5,0-0.9,0.2-1.4,0.7c-0.5,0.4-0.8,1.1-1.1,2.1v-0.1l-2.3,7.5
	c-0.1,0.3-0.1,0.6-0.1,0.8c0,0.3,0.1,0.6,0.2,0.8c0.1,0.2,0.3,0.3,0.5,0.5c0.2,0.2,0.3,0.3,0.4,0.4c0.1,0.1,0.1,0.2,0,0.4
	c-0.1,0.3-0.4,0.6-0.7,0.7c-0.4,0.1-0.9,0.2-1.7,0.2h-8.4c-0.6,0-1.1-0.1-1.4-0.3c-0.3-0.2-0.4-0.5-0.3-0.8c0.1-0.3,0.4-0.6,0.8-0.8
	c0.4-0.2,0.7-0.4,0.9-0.7c0.2-0.3,0.5-0.7,0.6-1.3l5.6-18.4c0.1-0.2,0.1-0.4,0.1-0.6c0-0.3-0.1-0.5-0.2-0.7
	c-0.1-0.2-0.3-0.3-0.5-0.5c-0.2-0.2-0.4-0.4-0.6-0.5c-0.1-0.1-0.1-0.3,0-0.6C28.3,1.5,29,1,30.4,0.6C31.8,0.2,33.3,0,34.8,0
	c1.4,0,2.5,0.3,3.1,0.8c0.7,0.5,1,1.3,1,2.2c0,0.5-0.1,1.1-0.3,1.6l-2,6.5c1-1.3,2-2.1,3-2.6C40.8,8,42,7.7,43.2,7.7
	c1.5,0,2.7,0.5,3.6,1.4c0.9,0.9,1.4,2.1,1.4,3.5c0,0.8-0.1,1.5-0.4,2.2L45.6,22.1z"/>
<path class="st0" d="M84.2,22.1c0,0.1-0.1,0.2-0.1,0.4c0,0.2,0,0.3,0.1,0.4c0.1,0.1,0.2,0.1,0.4,0.1c0.3,0,0.5-0.1,0.7-0.4
	c0.2-0.3,0.4-0.4,0.4-0.4c0.1,0,0.2,0.1,0.3,0.3c0.1,0.1,0.1,0.3,0.1,0.6c0,0.7-0.2,1.4-0.7,2.1c-0.5,0.7-1.2,1.2-2.2,1.7
	c-0.9,0.4-2.1,0.6-3.4,0.6c-1.6,0-2.9-0.4-3.9-1.1c-1-0.8-1.4-1.8-1.5-3c0-0.9,0.2-1.9,0.7-3.1l2-5.3c0.1-0.3,0.2-0.6,0.2-0.8
	c0-0.3-0.1-0.6-0.3-0.7c-0.2-0.2-0.4-0.3-0.7-0.3c-0.4,0-0.8,0.2-1.3,0.6c-0.4,0.4-0.8,0.9-1.2,1.7l-2,6.6c0,0.1-0.1,0.2-0.1,0.4
	c0,0.2,0,0.3,0.1,0.4c0.1,0.1,0.2,0.1,0.4,0.1c0.3,0,0.5-0.1,0.7-0.4c0.2-0.3,0.4-0.4,0.4-0.4c0.1,0,0.2,0.1,0.3,0.3
	c0.1,0.1,0.1,0.3,0.1,0.6c0,0.7-0.2,1.4-0.7,2.1c-0.5,0.7-1.2,1.2-2.2,1.7c-0.9,0.4-2.1,0.6-3.4,0.6c-1.6,0-2.9-0.4-3.9-1.1
	c-1-0.8-1.4-1.8-1.5-3c0-0.9,0.2-1.9,0.7-3.1l2-5.3c0.1-0.3,0.2-0.6,0.2-0.8c0-0.3-0.1-0.6-0.3-0.7c-0.2-0.2-0.4-0.3-0.7-0.3
	c-0.4,0-0.8,0.2-1.3,0.6c-0.4,0.3-0.8,0.9-1.1,1.7l-2.4,7.9c-0.1,0.3-0.1,0.5-0.1,0.8c0,0.3,0.1,0.5,0.2,0.7
	c0.1,0.2,0.3,0.4,0.5,0.6c0.2,0.1,0.3,0.3,0.4,0.4c0.1,0.1,0.1,0.3,0,0.4c-0.1,0.3-0.3,0.6-0.7,0.7c-0.4,0.1-0.9,0.2-1.7,0.2h-8.4
	c-0.6,0-1.1-0.1-1.4-0.3c-0.3-0.2-0.4-0.5-0.3-0.8c0.1-0.3,0.4-0.6,0.8-0.8c0.4-0.2,0.7-0.4,0.9-0.7c0.2-0.3,0.5-0.7,0.6-1.3
	l3.3-10.6c0-0.1,0.1-0.3,0.1-0.5c0-0.3-0.1-0.5-0.2-0.6c-0.1-0.1-0.3-0.3-0.5-0.6c-0.2-0.2-0.4-0.4-0.5-0.5c-0.1-0.1-0.1-0.3,0-0.6
	c0.1-0.6,0.9-1.1,2.3-1.5c1.4-0.4,2.9-0.7,4.4-0.7c1.2,0,2.1,0.3,2.8,1c0.7,0.7,1.1,1.6,1,2.7c1-1.4,2.1-2.4,3.2-2.9
	C67,8,68.2,7.7,69.5,7.7C71,7.7,72.1,8.1,73,9c0.9,0.8,1.4,1.9,1.5,3.2c1.1-1.7,2.2-2.8,3.4-3.5c1.2-0.7,2.5-1,3.9-1
	c1.5,0,2.7,0.5,3.6,1.4c0.9,0.9,1.4,2.1,1.4,3.5c0,0.8-0.1,1.5-0.4,2.2L84.2,22.1z"/>
<path class="st0" d="M106.9,7.7c1.1,0,1.9,0.4,2.6,1.3c0.7,0.9,1,2,1,3.5c0,1.3-0.2,2.7-0.7,4.2c-0.9,3-2.4,5.9-4.4,8.5
	c-2,2.7-4.3,4.8-6.9,6.4c-2.6,1.6-5.2,2.4-7.7,2.4c-1.3,0-2.4-0.2-3.3-0.7c-0.9-0.4-1.6-1-2.1-1.8c-0.5-0.7-0.7-1.5-0.7-2.4
	c0-0.4,0.1-0.8,0.2-1.2c0.2-0.7,0.6-1.2,1.1-1.6c0.5-0.4,1.1-0.6,1.8-0.6c1.1,0,2,0.4,2.8,1.1c0.7,0.8,1.2,1.9,1.4,3.2
	c1.6-0.1,3-0.7,4.3-2c-1.3-0.2-2.2-0.6-2.8-1.3c-0.6-0.6-1-1.6-1.2-2.9l-1.5-9c-0.1-0.5-0.2-0.8-0.3-1c-0.1-0.2-0.3-0.3-0.5-0.3
	c-0.2,0-0.4,0.1-0.6,0.3c-0.2,0.2-0.4,0.3-0.5,0.3c-0.2,0-0.3-0.2-0.3-0.6c0-0.3,0.1-0.7,0.2-1.1c0.4-1.4,1.3-2.6,2.5-3.5
	c1.2-1,2.6-1.5,4.2-1.5c1.6,0,2.7,0.5,3.5,1.4c0.8,0.9,1.3,2.4,1.5,4.3l1.1,8.1c0.1,0.6,0.3,0.9,0.7,0.9c0.4,0,1-0.4,1.5-1.2
	c0.6-0.8,1.2-2,1.7-3.4c-0.7-0.7-1.3-1.4-1.7-2.3c-0.4-0.9-0.6-1.8-0.6-2.8c0-0.8,0.1-1.4,0.3-2.1c0.3-1,0.7-1.7,1.4-2.2
	C105.4,8,106.2,7.7,106.9,7.7z"/>
<path class="st0" d="M125.3,0c2.6,0,4.6,0.4,5.9,1.2c1.3,0.8,2,1.8,2,2.9c0,0.9-0.4,1.7-1.2,2.2c-0.8,0.5-1.8,0.7-3,0.7
	c-1.2,0-2-0.3-2.7-0.8c-0.6-0.6-1-1.3-1-2.1c0-0.5,0.2-1.1,0.5-1.6c-0.7,0-1.3,0.2-1.8,0.6c-0.5,0.3-0.9,0.9-1.1,1.8
	c-0.1,0.5-0.2,1-0.2,1.5c0,0.6,0.1,1.1,0.3,1.4c0.2,0.3,0.5,0.5,0.9,0.5h2.2c1.3,0,1.9,0.4,1.9,1.2c0,0.1,0,0.2-0.1,0.4
	c-0.1,0.5-0.5,0.9-0.9,1.2c-0.4,0.3-1.1,0.4-2,0.4h-1.1l-3.6,11.9c-0.1,0.3-0.1,0.6-0.1,0.8c0,0.3,0.1,0.6,0.2,0.8
	c0.1,0.2,0.3,0.3,0.5,0.5c0.2,0.2,0.3,0.3,0.4,0.4c0.1,0.1,0.1,0.2,0,0.4c-0.1,0.3-0.4,0.6-0.7,0.7c-0.4,0.1-0.9,0.2-1.7,0.2h-8.4
	c-0.6,0-1.1-0.1-1.4-0.3c-0.3-0.2-0.4-0.5-0.3-0.8c0.1-0.3,0.4-0.6,0.8-0.8c0.4-0.2,0.7-0.4,0.9-0.7c0.2-0.3,0.5-0.7,0.6-1.3
	l2.9-9.4c0.1-0.4,0.2-0.7,0.2-1.1c0-0.5-0.1-0.9-0.3-1.1c-0.2-0.3-0.5-0.6-0.9-1c-0.3-0.2-0.5-0.4-0.6-0.6c-0.1-0.2-0.2-0.4-0.2-0.6
	c0-0.5,0.1-0.8,0.5-1c0.4-0.2,1.1-0.3,2.1-0.3h0.9c-0.2-0.6-0.3-1.2-0.3-1.8c0-0.6,0.1-1.3,0.3-1.9c0.5-1.3,1.5-2.3,3-3.2
	C120,0.4,122.3,0,125.3,0z"/>
<path class="st0" d="M139.8,7.7c3.3,0,5.8,0.7,7.4,2c1.6,1.3,2.4,3.1,2.4,5.3c0,0.7-0.1,1.6-0.3,2.5c-0.5,2-1.3,3.8-2.6,5.3
	c-1.3,1.5-2.8,2.7-4.7,3.5c-1.8,0.8-3.8,1.2-6,1.2c-3.4,0-5.9-0.7-7.6-2c-1.6-1.4-2.4-3.2-2.4-5.4c0-0.8,0.1-1.6,0.3-2.5
	c0.5-1.9,1.3-3.6,2.7-5.1c1.3-1.5,2.9-2.7,4.8-3.5C135.6,8.1,137.7,7.7,139.8,7.7z M139.7,11c-0.5,0-1.1,0.5-1.7,1.4
	c-0.6,0.9-1.2,2.6-2,5.2s-1.2,4.3-1.2,5.4c0,0.5,0.1,0.9,0.3,1.1c0.2,0.2,0.4,0.3,0.7,0.3c0.5,0,1-0.4,1.6-1.3
	c0.6-0.9,1.3-2.7,2.1-5.4c0.8-2.4,1.1-4.1,1.1-5.2c0-0.5-0.1-0.9-0.3-1.1C140.2,11.1,140,11,139.7,11z"/>
<path class="st0" d="M164,7.7c3.3,0,5.8,0.7,7.4,2c1.6,1.3,2.4,3.1,2.4,5.3c0,0.7-0.1,1.6-0.3,2.5c-0.5,2-1.3,3.8-2.6,5.3
	c-1.3,1.5-2.8,2.7-4.7,3.5c-1.8,0.8-3.8,1.2-6,1.2c-3.4,0-5.9-0.7-7.6-2c-1.6-1.4-2.4-3.2-2.4-5.4c0-0.8,0.1-1.6,0.3-2.5
	c0.5-1.9,1.3-3.6,2.7-5.1c1.3-1.5,2.9-2.7,4.8-3.5C159.8,8.1,161.8,7.7,164,7.7z M163.9,11c-0.5,0-1.1,0.5-1.7,1.4
	c-0.6,0.9-1.2,2.6-2,5.2c-0.8,2.6-1.2,4.3-1.2,5.4c0,0.5,0.1,0.9,0.3,1.1c0.2,0.2,0.4,0.3,0.7,0.3c0.5,0,1-0.4,1.6-1.3
	c0.6-0.9,1.3-2.7,2.1-5.4c0.8-2.4,1.1-4.1,1.1-5.2c0-0.5-0.1-0.9-0.3-1.1C164.4,11.1,164.2,11,163.9,11z"/>
<path class="st0" d="M194.5,21.9c-0.1,0.2-0.1,0.3-0.1,0.4c0,0.2,0,0.3,0.1,0.4c0.1,0.1,0.2,0.1,0.4,0.1c0.3,0,0.5-0.1,0.7-0.4
	c0.2-0.3,0.4-0.4,0.4-0.4c0.1,0,0.2,0.1,0.3,0.3c0.1,0.2,0.1,0.4,0.1,0.6c0,0.7-0.2,1.3-0.8,2c-0.5,0.7-1.2,1.3-2.1,1.7
	c-0.9,0.4-1.8,0.7-2.9,0.7c-1.2,0-2.3-0.2-3.2-0.7c-0.9-0.5-1.5-1.1-1.9-1.8c-0.7,0.9-1.4,1.5-2.3,1.9c-0.9,0.4-1.8,0.6-2.7,0.6
	c-1.1,0-2.2-0.3-3.2-0.8c-1-0.6-1.7-1.4-2.3-2.4c-0.6-1.1-0.8-2.2-0.8-3.6c0-2.2,0.4-4.3,1.3-6.3c0.9-2,2-3.6,3.6-4.8
	c1.5-1.2,3.3-1.8,5.2-1.8c1.1,0,2,0.1,2.7,0.4c0.8,0.2,1.4,0.6,2.1,1.1l1.3-4.1c0.1-0.2,0.1-0.4,0.1-0.6c0-0.3-0.1-0.5-0.2-0.7
	c-0.1-0.2-0.3-0.3-0.5-0.5c-0.2-0.2-0.4-0.4-0.6-0.5c-0.1-0.1-0.1-0.3,0-0.6c0.1-0.6,0.9-1.1,2.3-1.5c1.4-0.4,2.9-0.6,4.4-0.6
	c1.4,0,2.5,0.3,3.1,0.8c0.7,0.5,1,1.3,1,2.2c0,0.5-0.1,1.1-0.3,1.6L194.5,21.9z M188.3,11.6c-0.4-0.3-0.8-0.5-1.3-0.5
	c-0.7,0-1.4,0.5-2.1,1.6s-1.2,2.3-1.7,3.8c-0.4,1.5-0.6,2.8-0.6,4c0,1.3,0.4,2,1.3,2c0.3,0,0.6-0.1,0.8-0.4c0.2-0.3,0.4-0.7,0.6-1.3
	L188.3,11.6z"/>
</svg>
