<svg width="12" height="13" viewBox="0 0 12 13" fill="none" xmlns="http://www.w3.org/2000/svg">
<path d="M9.12867 4.87486H6.29822V6.29686C6.29822 7.30495 5.69675 8.12514 4.95748 8.12514C4.21821 8.12514 3.61674 7.30495 3.61674 6.29686V3.2091L2.40822 4.19941C2.04882 4.49143 1.82909 5.02214 1.82909 5.59094V6.79202L0.339382 7.96516C0.0544753 8.18862 -0.0442179 8.68632 0.121512 9.07483L1.61122 12.5943C1.77509 12.9828 2.14007 13.1148 2.42498 12.8914L4.35042 11.3754H6.8941C7.55144 11.3754 8.08587 10.6466 8.08587 9.75027H8.38381C8.71341 9.75027 8.9797 9.38716 8.9797 8.93771V7.31257H9.12867C9.37633 7.31257 9.57558 7.04087 9.57558 6.70314V5.48429C9.57558 5.14656 9.37633 4.87486 9.12867 4.87486ZM11.879 3.92517L10.3893 0.405735C10.2255 0.0172256 9.86049 -0.114817 9.57558 0.10864L7.65013 1.62459H5.74703C5.52357 1.62459 5.3057 1.71092 5.11576 1.8709L4.49195 2.40161C4.31691 2.54888 4.21263 2.81043 4.21263 3.08975V6.29686C4.21263 6.85804 4.54595 7.31257 4.95748 7.31257C5.36901 7.31257 5.70233 6.85804 5.70233 6.29686V4.06229H9.12867C9.70407 4.06229 10.1715 4.69965 10.1715 5.48429V6.20798L11.6612 5.03484C11.9461 4.80884 12.0429 4.31368 11.879 3.92517Z" fill="white"/>
</svg>
